Coordinates
version=1
nRows=16
nColumns=40
inDegrees=yes

Units are S.I. units (second, meters, Newtons, ...)
Angles are in degrees.

endheader
time	pelvis_tilt	pelvis_list	pelvis_rotation	pelvis_tx	pelvis_ty	pelvis_tz	hip_flexion_r	hip_adduction_r	hip_rotation_r	knee_angle_r	knee_angle_r_beta	ankle_angle_r	subtalar_angle_r	mtp_angle_r	hip_flexion_l	hip_adduction_l	hip_rotation_l	knee_angle_l	knee_angle_l_beta	ankle_angle_l	subtalar_angle_l	mtp_angle_l	lumbar_extension	lumbar_bending	lumbar_rotation	arm_flex_r	arm_add_r	arm_rot_r	elbow_flex_r	pro_sup_r	wrist_flex_r	wrist_dev_r	arm_flex_l	arm_add_l	arm_rot_l	elbow_flex_l	pro_sup_l	wrist_flex_l	wrist_dev_l
     39.36000000	     -3.98327232	     -4.64735606	      5.88884278	      1.09706355	      0.92541586	      0.42733315	      3.85372385	     -1.96105474	    -15.81763448	     25.38737576	     25.38737576	     16.20928496	     -1.94908790	     -5.32990011	     24.74709896	     -4.84471288	     -0.86081135	     25.74424821	     25.74424821	      7.95269002	    -14.34017861	      4.26613257	     -8.79986871	      4.33165471	      3.38975928	     25.15895163	    -16.53195068	    -11.70122996	     63.30185991	     45.93675850	      0.00000000	      0.00000000	      2.68994648	     -9.96032279	     -1.12553100	     30.51461764	     45.73297862	      0.00000000	      0.00000000
     39.37342857	     -3.96904359	     -4.61800811	      5.55928393	      1.09692183	      0.92590706	      0.42447238	      5.10622222	     -2.64087609	    -15.21165892	     28.31262364	     28.31262364	     15.41282123	     -2.97317655	     -6.43024887	     24.23872624	     -4.77388039	     -1.23620957	     25.69877379	     25.69877379	      8.42552198	    -14.28230146	      4.21594914	     -8.79828669	      4.31753358	      3.52930595	     23.74993683	    -16.50711404	    -11.27330051	     61.18165197	     45.98183742	      0.00000000	      0.00000000	      3.75385629	    -10.22336500	     -1.30207096	     31.00404062	     45.77796795	      0.00000000	      0.00000000
     39.38685714	     -3.95255071	     -4.51661413	      5.23339663	      1.09646101	      0.92632728	      0.42172587	      6.63546307	     -3.41467158	    -14.41390811	     31.65595858	     31.65595858	     14.35419513	     -4.16885643	     -7.64788328	     23.76691788	     -4.64092666	     -1.66822742	     25.69003659	     25.69003659	      8.76154011	    -14.16460687	      4.13023195	     -8.93264200	      4.20031355	      3.64464007	     22.34594321	    -16.47500984	    -10.81085982	     59.01522397	     46.02737260	      0.00000000	      0.00000000	      4.86906740	    -10.51067805	     -1.49056435	     31.61286529	     45.82436189	      0.00000000	      0.00000000
     39.40028571	     -4.02391573	     -4.50679972	      4.84533813	      1.09592844	      0.92651900	      0.41921483	      8.42922538	     -4.03802369	    -13.44487577	     35.14401433	     35.14401433	     12.86072254	     -5.64042329	     -9.15704628	     23.36965887	     -4.61209460	     -2.08152199	     25.63200971	     25.63200971	      9.14284566	    -14.05959276	      3.99593934	     -8.86346993	      4.16437640	      3.82136152	     20.96779052	    -16.44263194	    -10.20774290	     56.38570529	     46.08191682	      0.00000000	      0.00000000	      5.90682718	    -10.83331501	     -1.73388395	     32.34756050	     45.87678205	      0.00000000	      0.00000000
     39.41371429	     -4.01933712	     -4.49462785	      4.46687389	      1.09533168	      0.92673725	      0.41684571	     10.26410544	     -4.61991008	    -12.44426208	     38.73046927	     38.73046927	     11.02663643	     -7.16922219	    -10.66847226	     22.91459699	     -4.60035216	     -2.50171006	     25.60514850	     25.60514850	      9.51117532	    -13.93959019	      3.79870728	     -8.91638203	      4.14135279	      3.83063265	     19.67853542	    -16.31938618	     -9.54171137	     53.70972313	     46.13502050	      0.00000000	      0.00000000	      6.93577990	    -11.20349635	     -2.00041853	     33.18974549	     45.93148014	      0.00000000	      0.00000000
     39.42714286	     -3.87986225	     -4.40979336	      4.15712867	      1.09460544	      0.92698294	      0.41445923	     12.08622186	     -5.27288993	    -11.49719164	     42.48136777	     42.48136777	      9.13116517	     -8.53305439	    -11.74873048	     22.37162459	     -4.51208163	     -2.93454643	     25.66192841	     25.66192841	      9.86314240	    -13.80299538	      3.55128269	     -9.13955613	      4.09515897	      3.73888761	     18.36847330	    -16.05170157	     -8.94841933	     51.44557736	     46.17725958	      0.00000000	      0.00000000	      8.06020688	    -11.69373829	     -2.25743561	     34.05840385	     45.98503911	      0.00000000	      0.00000000
     39.44057143	     -3.67935477	     -4.38837179	      3.90102021	      1.09387839	      0.92729192	      0.41222374	     13.85258477	     -5.79784819	    -10.59131461	     46.10693630	     46.10693630	      7.18631063	     -9.62070677	    -12.27659369	     21.78204569	     -4.48448560	     -3.27349674	     25.71850887	     25.71850887	     10.22114261	    -13.65417970	      3.29657019	     -9.41653007	      4.12225302	      3.55744483	     16.91920979	    -15.71951471	     -8.47191499	     49.56861766	     46.21138963	      0.00000000	      0.00000000	      9.22977430	    -12.24465584	     -2.48415080	     34.87978213	     46.03407279	      0.00000000	      0.00000000
     39.45400000	     -3.61605346	     -4.52787386	      3.55926699	      1.09310147	      0.92748375	      0.41047147	     15.74531303	     -5.90902886	     -9.41933954	     49.34359566	     49.34359566	      4.27302875	    -11.71232963	    -14.53907215	     21.33395267	     -4.73845369	     -3.90308427	     25.73633528	     25.73633528	     10.50739929	    -13.11609982	      2.46031152	     -9.37902907	      4.22671358	      2.47666634	     17.92159070	    -15.04032124	     -6.02341153	     41.90133497	     46.34060052	      0.00000000	      0.00000000	      9.10220460	    -13.07743732	     -3.41255039	     37.23809075	     46.16336320	      0.00000000	      0.00000000
     39.46742857	     -3.52031026	     -4.53082117	      3.25851239	      1.09222648	      0.92766020	      0.40871103	     17.68958555	     -6.24364750	     -8.46956694	     52.70834833	     52.70834833	      2.55183825	    -12.35089362	    -13.93140777	     20.85352776	     -4.76237453	     -4.27308597	     25.75665949	     25.75665949	     10.79268063	    -12.99093673	      2.25579273	     -9.52300093	      4.20996287	      2.51003732	     16.07890110	    -14.90245390	     -5.64283188	     40.45839957	     46.35362393	      0.00000000	      0.00000000	     10.30811917	    -13.55254728	     -3.80850347	     38.30162459	     46.23357241	      0.00000000	      0.00000000
     39.48085714	     -3.36225460	     -4.51243857	      2.98855777	      1.09141817	      0.92796997	      0.40693659	     19.47361140	     -6.52840046	     -7.53420891	     55.72082560	     55.72082560	      1.08974066	    -12.66857523	    -13.11077153	     20.26792041	     -4.76721925	     -4.68552165	     25.72761673	     25.72761673	     11.22760815	    -12.70709556	      1.96976501	     -9.77305669	      4.27070880	      2.37423001	     14.33049855	    -14.65665210	     -5.33277196	     39.02897425	     46.37355344	      0.00000000	      0.00000000	     11.48069111	    -14.08894542	     -4.08549196	     39.16861743	     46.28678469	      0.00000000	      0.00000000
     39.49428571	     -3.15991300	     -4.61402213	      2.75434174	      1.09064476	      0.92844164	      0.40543868	     21.22944911	     -6.62796100	     -6.73545354	     58.66561573	     58.66561573	      1.48515971	    -11.69639812	     -7.58816738	     19.67897942	     -4.97470850	     -5.24409641	     25.75932332	     25.75932332	     11.60492165	    -12.07234783	      1.42485074	     -9.96149639	      4.41509450	      1.85446807	     13.64110643	    -14.19199622	     -4.32510078	     35.14467812	     46.41369285	      0.00000000	      0.00000000	     12.15163178	    -14.84665140	     -4.73496569	     40.87725208	     46.38916948	      0.00000000	      0.00000000
     39.50771429	     -3.00850959	     -4.61876683	      2.52616928	      1.08983504	      0.92898508	      0.40395177	     22.75812079	     -6.79652774	     -6.03041223	     60.76369451	     60.76369451	      0.40047193	    -11.73880447	     -7.22887139	     19.04996700	     -4.98772581	     -5.59207501	     25.60965867	     25.60965867	     11.92730517	    -11.81977132	      1.28369428	    -10.14441313	      4.47577651	      1.64599639	     11.76145596	    -13.92956268	     -4.16988561	     34.11571098	     46.42672778	      0.00000000	      0.00000000	     13.34975580	    -15.44886625	     -4.97031840	     41.59754612	     46.43544514	      0.00000000	      0.00000000
     39.52114286	     -2.88754720	     -4.67096795	      2.25846622	      1.08903791	      0.92961436	      0.40267991	     24.19379422	     -6.85220520	     -5.40147320	     62.39349165	     62.39349165	     -0.20813547	    -11.57889646	     -6.45741277	     18.42127281	     -5.09872105	     -6.08221220	     25.41301976	     25.41301976	     12.27979269	    -11.31312297	      1.07781808	    -10.28529441	      4.56925129	      1.78287301	      9.80388863	    -13.83834690	     -3.99283072	     32.74322103	     46.45020256	      0.00000000	      0.00000000	     14.64992971	    -15.83932052	     -5.18590849	     42.59670675	     46.48113996	      0.00000000	      0.00000000
     39.53457143	     -2.72086599	     -4.83163079	      2.04110838	      1.08826226	      0.93042178	      0.40157045	     25.50272295	     -6.79914388	     -4.98919842	     63.72179723	     63.72179723	      0.57788550	    -10.67077452	     -2.58332922	     17.76262935	     -5.36995394	     -6.66661063	     25.24514188	     25.24514188	     12.68536735	    -10.51294060	      0.76205950	    -10.45649514	      4.79039772	      1.50045911	      8.52536359	    -13.48994900	     -3.83673644	     30.27867958	     46.50148653	      0.00000000	      0.00000000	     15.55073049	    -16.52514738	     -5.33990918	     43.87723945	     46.52615100	      0.00000000	      0.00000000
     39.54800000	     -2.62555857	     -4.85904500	      1.78630320	      1.08742143	      0.93129968	      0.40046497	     26.63435962	     -6.87103357	     -4.63115034	     64.27196092	     64.27196092	      0.36521424	    -10.42733840	     -2.43912506	     17.04816658	     -5.38361348	     -7.01141335	     24.81802466	     24.81802466	     12.88898403	    -10.26919174	      0.76045565	    -10.56534728	      4.87345527	      1.45453155	      6.62518374	    -13.34836915	     -3.76697208	     29.31468446	     46.51591900	      0.00000000	      0.00000000	     16.72660932	    -16.99326514	     -5.59158523	     44.77601171	     46.57379691	      0.00000000	      0.00000000
     39.56142857	     -2.56958130	     -5.00614654	      1.59662474	      1.08656697	      0.93218379	      0.39949978	     27.60239913	     -6.83014586	     -4.53950870	     64.24528410	     64.24528410	      0.31732971	    -10.31818445	     -2.36144817	     16.42368334	     -5.51147452	     -7.23208064	     24.44038795	     24.44038795	     13.12930241	    -10.07860221	      0.72456189	    -10.62101487	      5.08568645	      1.04540096	      4.92735454	    -13.08221864	     -3.71749735	     28.59074980	     46.52591535	      0.00000000	      0.00000000	     17.69641216	    -17.70934350	     -5.82791899	     45.37554136	     46.61387591	      0.00000000	      0.00000000
